# Blender v2.81 (sub 16) OBJ File: ''
# www.blender.org
mtllib smoothCutPyramid.mtl
v 0.000000 -1.000000 -1.000000
v 0.866025 -1.000000 0.500000
v -0.866025 -1.000000 0.500000
v 0.000000 1.000000 0.000000
vt 0.250000 0.490000
vt 0.250000 0.250000
vt 0.457846 0.130000
vt 0.042154 0.130000
vt 0.750000 0.490000
vt 0.957846 0.130000
vt 0.542154 0.130000
vn 0.0000 -0.3873 -0.9219
vn 0.0000 1.0000 0.0000
vn 0.7984 -0.3873 0.4610
vn -0.7984 -0.3873 0.4610
usemtl None
s 1
f 1/1/1 4/2/2 2/3/3
f 2/3/3 4/2/2 3/4/4
f 3/4/4 4/2/2 1/1/1
f 1/5/1 2/6/3 3/7/4
