# Blender v2.81 (sub 16) OBJ File: ''
# www.blender.org
mtllib smoothCutPyramidInverted2.mtl
o Cone_Cone.001
v 0.000000 -1.000000 -1.000000
v 0.866025 -1.000000 0.500000
v -0.866025 -1.000000 0.500000
v 0.000000 1.000000 0.000000
vt 0.596697 0.362961
vt 0.393139 0.374874
vt 0.498289 0.616003
vt 0.515864 0.435244
vn 0.0000 0.3873 0.9219
vn -0.7984 0.3873 -0.4610
vn 0.0000 -1.0000 0.0000
vn 0.7984 0.3873 -0.4610
usemtl None
s 1
f 1/1/1 2/2/2 4/3/3
f 2/2/2 3/4/4 4/3/3
f 3/4/4 1/1/1 4/3/3
f 1/1/1 3/4/4 2/2/2
